<svg xmlns="http://www.w3.org/2000/svg" version="1.0" width="648.000000pt" height="605.000000pt" viewBox="0 0 648.000000 605.000000" preserveAspectRatio="xMidYMid meet">

<g transform="translate(0.000000,605.000000) scale(0.100000,-0.100000)" fill="#673ab7" stroke="none">
<path d="M0 3025 l0 -3025 3240 0 3240 0 0 3025 0 3025 -3240 0 -3240 0 0 -3025z m3180 2184 c295 -81 501 -292 582 -593 22 -80 22 -89 21 -880 -1 -439 -5 -817 -8 -840 -42 -261 -199 -472 -444 -595 -108 -55 -198 -74 -346 -74 -112 0 -143 4 -218 27 -49 14 -112 38 -140 53 -206 104 -358 289 -420 512 -20 73 -21 103 -26 761 -8 1019 -8 962 18 1055 62 222 210 405 411 509 98 50 135 63 234 82 91 17 240 10 336 -17z m-1716 -653 c47 -19 76 -61 76 -107 0 -34 -8 -48 -65 -110 -173 -188 -275 -398 -306 -627 -17 -133 -7 -322 25 -445 28 -108 101 -271 163 -363 49 -73 58 -104 39 -147 -20 -50 -60 -77 -112 -77 -57 0 -102 39 -167 148 -104 171 -174 383 -197 593 -27 242 31 543 145 754 108 200 279 391 353 394 7 1 27 -5 46 -13z m4282 -52 c104 -50 125 -178 42 -257 l-39 -37 -744 2 c-733 3 -744 3 -771 24 -51 38 -68 70 -68 128 0 43 5 61 28 91 51 67 17 64 804 65 638 0 718 -2 748 -16z m-3979 -310 c34 -21 56 -71 50 -111 -3 -19 -24 -55 -47 -83 -139 -165 -191 -354 -168 -602 9 -97 9 -133 0 -153 -15 -32 -68 -65 -107 -65 -40 0 -93 34 -106 68 -36 93 -51 331 -28 458 28 160 102 315 199 418 36 38 79 75 95 82 33 15 78 10 112 -12z m3964 -354 c109 -30 139 -164 53 -239 l-35 -31 -735 0 c-804 0 -775 -2 -827 59 -52 62 -28 168 46 205 28 14 112 16 747 16 450 0 728 -4 751 -10z m39 -673 c46 -30 73 -80 73 -134 0 -50 -21 -85 -73 -120 l-33 -23 -566 0 c-547 0 -567 1 -599 20 -83 51 -96 168 -26 232 55 49 42 48 635 48 l556 0 33 -23z m-3870 -25 c48 -35 60 -76 60 -204 0 -164 28 -286 100 -428 105 -210 299 -397 508 -492 93 -42 238 -77 352 -84 489 -32 922 276 1060 756 16 56 23 114 27 227 6 172 15 197 78 227 45 22 92 17 134 -14 46 -32 54 -74 48 -229 -9 -204 -46 -351 -133 -525 -66 -130 -122 -206 -244 -327 -187 -186 -394 -301 -627 -348 -55 -12 -111 -21 -122 -21 -21 0 -21 -2 -21 -310 l0 -309 328 -3 c309 -3 328 -4 354 -23 85 -64 74 -176 -21 -225 -39 -20 -55 -20 -806 -20 -830 0 -791 -3 -845 55 -33 36 -35 106 -3 151 44 62 57 64 412 64 l321 0 0 309 0 308 -57 7 c-200 23 -454 134 -610 265 -181 152 -291 291 -382 482 -88 184 -126 359 -119 548 2 81 7 105 24 128 45 62 126 77 184 35z m3440 -651 c75 -39 102 -128 60 -196 -39 -64 -49 -65 -442 -65 -394 0 -400 1 -445 69 -45 66 -18 156 57 193 31 16 72 18 385 18 322 0 353 -2 385 -19z" fill="#673ab7"/>
</g>
</svg>